<?xml version="1.0" encoding="utf-8"?>
<!-- Generator: Adobe Illustrator 23.1.1, SVG Export Plug-In . SVG Version: 6.00 Build 0)  -->
<svg version="1.1" id="Layer_1" xmlns="http://www.w3.org/2000/svg" xmlns:xlink="http://www.w3.org/1999/xlink" x="0px" y="0px"
	 viewBox="0 0 100 100" style="enable-background:new 0 0 100 100;" xml:space="preserve">
<style type="text/css">
	.st0{fill:#25282D;}
</style>
<g>
	<path class="st0" d="M35.9,74l-8.3,6.6c-0.7,0.6-1.8,0.5-2.3-0.3L3.5,53c-0.6-0.7-0.5-1.8,0.3-2.3L12,44c0.7-0.6,1.8-0.5,2.3,0.3
		l21.8,27.4C36.8,72.4,36.7,73.4,35.9,74z"/>
</g>
<g>
	<path class="st0" d="M28.4,84.4l-6.9-8.8c-0.6-0.7-0.4-1.8,0.3-2.3l64.7-50.4c0.7-0.6,1.8-0.4,2.3,0.3l6.9,8.8
		c0.6,0.7,0.4,1.8-0.3,2.3L30.7,84.7C30,85.2,29,85.1,28.4,84.4z"/>
</g>
</svg>
