<?xml version="1.0" encoding="utf-8"?>
<!-- Generator: Adobe Illustrator 23.1.1, SVG Export Plug-In . SVG Version: 6.00 Build 0)  -->
<svg version="1.1" id="Layer_1" xmlns="http://www.w3.org/2000/svg" xmlns:xlink="http://www.w3.org/1999/xlink" x="0px" y="0px"
	 viewBox="0 0 100 100" style="enable-background:new 0 0 100 100;" xml:space="preserve">
<style type="text/css">
	.st0{fill:#25282D;}
</style>
<g>
	<path class="st0" d="M85.4,83.7L85.4,83.7c-3,3.2-8.1,3.4-11.3,0.4L15,28.6c-3.2-3-3.4-8.1-0.4-11.3l0,0c3-3.2,8.1-3.4,11.3-0.4
		L85,72.4C88.2,75.4,88.4,80.5,85.4,83.7z"/>
</g>
<g>
	<path class="st0" d="M14.8,83.4L14.8,83.4c-3.1-3.2-3-8.2,0.2-11.3l58.4-56.2c3.2-3.1,8.2-3,11.3,0.2l0,0c3.1,3.2,3,8.2-0.2,11.3
		L26.1,83.6C22.9,86.6,17.8,86.5,14.8,83.4z"/>
</g>
</svg>
