<?xml version="1.0" encoding="utf-8"?>
<!-- Generator: Adobe Illustrator 23.1.1, SVG Export Plug-In . SVG Version: 6.00 Build 0)  -->
<svg version="1.1" id="Layer_1" xmlns="http://www.w3.org/2000/svg" xmlns:xlink="http://www.w3.org/1999/xlink" x="0px" y="0px"
	 viewBox="0 0 100 100" style="enable-background:new 0 0 100 100;" xml:space="preserve">
<path d="M49.5,4.1C23.3,4.1,2,25.4,2,51.6c0,21,13.6,38.8,32.5,45.1c2.4,0.4,3.1-1,3.1-2.3v-8.8c-13.2,2.9-16-5.6-16-5.6
	c-2.2-5.5-5.3-7-5.3-7c-4.3-2.9,0.3-2.9,0.3-2.9C21.5,70.4,24,75,24,75c4.2,7.3,11.1,5.2,13.8,3.9c0.4-3.1,1.7-5.2,3-6.3
	c-10.5-1.2-21.6-5.3-21.6-23.5c0-5.2,1.9-9.4,4.9-12.7c-0.5-1.2-2.1-6,0.5-12.6c0,0,4-1.3,13.1,4.9c3.8-1.1,7.8-1.6,11.9-1.6
	c4,0,8.1,0.5,11.9,1.6c9.1-6.1,13.1-4.9,13.1-4.9c2.6,6.5,1,11.4,0.5,12.6c3,3.3,4.9,7.6,4.9,12.7c0,18.2-11.1,22.3-21.7,23.4
	c1.7,1.5,3.3,4.4,3.3,8.8v13c0,1.3,0.8,2.7,3.2,2.3C83.4,90.4,97,72.6,97,51.6C97,25.4,75.7,4.1,49.5,4.1z"/>
</svg>
