<?xml version="1.0" encoding="utf-8"?>
<!-- Generator: Adobe Illustrator 23.1.1, SVG Export Plug-In . SVG Version: 6.00 Build 0)  -->
<svg version="1.1" id="Layer_1" xmlns="http://www.w3.org/2000/svg" xmlns:xlink="http://www.w3.org/1999/xlink" x="0px" y="0px"
	 viewBox="0 0 100 100" style="enable-background:new 0 0 100 100;" xml:space="preserve">
<style type="text/css">
	.st0{fill:#25282D;}
</style>
<path class="st0" d="M83.3,52.2L83.3,52.2c1.9-2.8,1.3-6.6-1.5-8.6L31.2,8.3c-2.8-1.9-6.6-1.3-8.6,1.5l0,0c-1.9,2.8-1.3,6.6,1.5,8.6
	l50.5,35.4C77.5,55.7,81.3,55,83.3,52.2z"/>
<path class="st0" d="M82.5,45.9L82.5,45.9c-2-2.7-5.8-3.3-8.6-1.3L24,81c-2.7,2-3.3,5.8-1.3,8.6l0,0c2,2.7,5.8,3.3,8.6,1.3
	l49.9-36.4C83.9,52.5,84.5,48.7,82.5,45.9z"/>
</svg>
