<svg version="1.1" id="Layer_1" xmlns="http://www.w3.org/2000/svg" xmlns:xlink="http://www.w3.org/1999/xlink" x="0px" y="0px"
	 viewBox="0 0 100 100" style="enable-background:new 0 0 100 100;" xml:space="preserve">
<style type="text/css">
	.st0{fill:#25282D;}
</style>
<g>
	<path class="st0" d="M37.9,75.1h-8.8c-2.3,0-4.2-1.9-4.2-4.2V27.2c0-2.3,1.9-4.2,4.2-4.2h8.8c2.3,0,4.2,1.9,4.2,4.2v43.8
		C42.1,73.2,40.2,75.1,37.9,75.1z"/>
</g>
<g>
	<path class="st0" d="M68.8,75.1h-8.8c-2.3,0-4.2-1.9-4.2-4.2V27.2c0-2.3,1.9-4.2,4.2-4.2h8.8c2.3,0,4.2,1.9,4.2,4.2v43.8
		C73,73.2,71.1,75.1,68.8,75.1z"/>
</g>
</svg>
