<svg version="1.1" id="Layer_1" xmlns="http://www.w3.org/2000/svg" xmlns:xlink="http://www.w3.org/1999/xlink" x="0px" y="0px"
	 viewBox="0 0 100 100" style="enable-background:new 0 0 100 100;" xml:space="preserve">
<style type="text/css">
	.st0{fill:#25282D;}
</style>
<path class="st0" d="M15.6,51.2L15.6,51.2c-1.9-2.8-1.3-6.6,1.5-8.6L67.7,7.3c2.8-1.9,6.6-1.3,8.6,1.5l0,0c1.9,2.8,1.3,6.6-1.5,8.6
	L24.2,52.7C21.4,54.7,17.6,54,15.6,51.2z"/>
<path class="st0" d="M16.4,44.9L16.4,44.9c2-2.7,5.8-3.3,8.6-1.3L74.9,80c2.7,2,3.3,5.8,1.3,8.6l0,0c-2,2.7-5.8,3.3-8.6,1.3
	L17.7,53.5C15,51.5,14.4,47.7,16.4,44.9z"/>
</svg>
