<svg version="1.1" id="Layer_1" xmlns="http://www.w3.org/2000/svg" xmlns:xlink="http://www.w3.org/1999/xlink" x="0px" y="0px"
	 viewBox="0 0 100 100" style="enable-background:new 0 0 100 100;" xml:space="preserve">
<style type="text/css">
	.st0{fill:#25282D;}
	.st1{fill:#FFFFFF;}
</style>
<circle class="st0" cx="51.4" cy="31.6" r="27.6"/>
<circle class="st1" cx="51.8" cy="30.7" r="19.2"/>
<path class="st1" d="M91.9,32.3l-22.7,8.3c-2.3,0.8-4.8-0.3-5.6-2.6l-4-11c-0.8-2.3,0.3-4.8,2.6-5.6L84.9,13
	c2.3-0.8,4.8,0.3,5.6,2.6l4,11C95.4,29,94.2,31.5,91.9,32.3z"/>
<g>
	<path class="st0" d="M81.8,97H21.1c-2.3,0-4.1-1.8-4.1-4.1V36.8c0-2.3,1.8-4.1,4.1-4.1h60.7c2.3,0,4.1,1.8,4.1,4.1v56.1
		C85.9,95.2,84.1,97,81.8,97z"/>
</g>
<path class="st1" d="M54.6,85.5h-6.3c-1.4,0-2.6-1.2-2.6-2.6V59.4c0-1.4,1.2-2.6,2.6-2.6h6.3c1.4,0,2.6,1.2,2.6,2.6v23.5
	C57.2,84.4,56,85.5,54.6,85.5z"/>
<circle class="st1" cx="51.4" cy="55.7" r="9.2"/>
</svg>
