<svg version="1.1" id="Layer_1" xmlns="http://www.w3.org/2000/svg" xmlns:xlink="http://www.w3.org/1999/xlink" x="0px" y="0px"
	 viewBox="0 0 100 100" style="enable-background:new 0 0 100 100;" xml:space="preserve">
<style type="text/css">
	.st0{fill:#FFFFFF;}
	.st1{fill:#E67D05;}
</style>
<path class="st0" d="M74.6,96.2H25.4c-2.8,0-5.1-2.3-5.1-5.1V24.6c0-2.8,2.3-5.1,5.1-5.1h49.2c2.8,0,5.1,2.3,5.1,5.1v66.5
	C79.7,93.9,77.4,96.2,74.6,96.2z"/>
<path class="st1" d="M52.9,86.9h-6c-0.6,0-1.1-0.5-1.1-1.1V30.9c0-0.6,0.5-1.1,1.1-1.1h6c0.6,0,1.1,0.5,1.1,1.1v54.9
	C54,86.4,53.6,86.9,52.9,86.9z"/>
<path class="st1" d="M69.3,86.9h-6c-0.6,0-1.1-0.5-1.1-1.1V30.9c0-0.6,0.5-1.1,1.1-1.1h6c0.6,0,1.1,0.5,1.1,1.1v54.9
	C70.4,86.4,69.9,86.9,69.3,86.9z"/>
<path class="st1" d="M36.6,86.9h-6c-0.6,0-1.1-0.5-1.1-1.1V30.9c0-0.6,0.5-1.1,1.1-1.1h6c0.6,0,1.1,0.5,1.1,1.1v54.9
	C37.7,86.4,37.2,86.9,36.6,86.9z"/>
<path class="st0" d="M86.9,18.1H14.2c-1.2,0-2.1-0.9-2.1-2.1v-4c0-1.2,0.9-2.1,2.1-2.1h72.7c1.2,0,2.1,0.9,2.1,2.1v4
	C89,17.2,88.1,18.1,86.9,18.1z"/>
<path class="st0" d="M66,13.1H31.8c-2.4,0-4.3-1.9-4.3-4.3V7.3c0-2.4,1.9-4.3,4.3-4.3H66c2.4,0,4.3,1.9,4.3,4.3v1.4
	C70.4,11.2,68.4,13.1,66,13.1z"/>
<path class="st1" d="M64.6,9.1H33.3c-0.6,0-1.1-0.5-1.1-1.1V7.6c0-0.6,0.5-1.1,1.1-1.1h31.3c0.6,0,1.1,0.5,1.1,1.1V8
	C65.7,8.6,65.2,9.1,64.6,9.1z"/>
</svg>
