<svg version="1.1" id="Layer_1" xmlns="http://www.w3.org/2000/svg" xmlns:xlink="http://www.w3.org/1999/xlink" x="0px" y="0px"
	 viewBox="0 0 734 234" style="enable-background:new 0 0 734 234;" xml:space="preserve">
<style type="text/css">
	.st0{enable-background:new    ;}
	.st1{fill:#3B4049;}
</style>
<g class="st0">
	<path class="st1" d="M134.9,108.6v58.3c0,9.5,3.2,15,11,15h3.7v21.4c-4.5,2.7-9.5,3.5-14.2,3.5c-13.5,0-21.2-6.7-25.2-15.7h-1
		c-5.7,7.2-16.2,16.7-37.6,16.7c-26.4,0-40.6-18.5-40.6-37.9c0-31.4,29.4-46.4,75-44.6v-12.5c0-18.2-9.5-23.4-23.4-23.4
		c-15.2,0-22.9,8.5-26.7,16L33.9,88.9c5.2-7.2,18.7-24.7,48.6-24.7C115.9,64.2,134.9,76.7,134.9,108.6z M105.9,146.7
		c-27.7-1.5-44.9,5-44.9,20.4c0,9.5,6.5,16.7,18.5,16.7c11.7,0,21.4-6,26.4-13.2V146.7z"/>
	<path class="st1" d="M205.9,16.3v149.3c0,11,4.5,15,12.7,15c3.5,0,5.7-0.5,7.5-1.2v24.7c-4.7,2-10.5,3.2-17.7,3.2
		c-21.2,0-33.2-12.5-33.2-33.7V16.3H205.9z"/>
	<path class="st1" d="M281.7,16.3v149.3c0,11,4.5,15,12.7,15c3.5,0,5.7-0.5,7.5-1.2v24.7c-4.7,2-10.5,3.2-17.7,3.2
		c-21.2,0-33.2-12.5-33.2-33.7V16.3H281.7z"/>
	<path class="st1" d="M318.8,136.5c0-42.9,17.2-72.6,61.8-72.6c45.9,0,60.6,28.4,60.6,71.3c0,42.9-17.5,72.6-61.8,72.6
		C333.8,207.8,318.8,179.1,318.8,136.5z M380.7,183.1c21.9,0,29.2-15.2,29.2-46.4c0-31.9-8.7-48.1-30.7-48.1
		c-20.4,0-28.7,15-28.7,46.4C350.5,166.7,359,183.1,380.7,183.1z"/>
	<path class="st1" d="M583.4,205.3h-30.9v-89.3c0-17-8-26.4-22.9-26.4c-13.2,0-23.7,8.2-28.2,19.4v96.2h-30.7V66.4h23.7l6.2,13.7h1
		c6.7-8.2,20.9-17,38.1-17c27.4,0,43.4,15,43.6,46.1V205.3z"/>
	<path class="st1" d="M614.3,105.3c0-21.7,18.5-41.4,50.1-41.4c21.9,0,37.6,7.7,46.6,17.7l-19.7,19.9c-5.7-6.2-15.7-12.5-27.7-12.5
		c-12.5,0-18.9,6.2-18.9,14.5c0,24.7,67.3,15.5,67.3,62.1c0,18.7-15.2,42.1-52.9,42.1c-27.9,0-45.9-11.5-53.9-19.7l18.5-21.7
		c7,7.7,20.4,16.5,36.9,16.5c14.5,0,20.7-7,20.7-15.5C681.4,143,614.3,152,614.3,105.3z"/>
</g>
</svg>
