<svg version="1.1" id="Layer_1" xmlns="http://www.w3.org/2000/svg" xmlns:xlink="http://www.w3.org/1999/xlink" x="0px" y="0px"
	 viewBox="0 0 100 100" style="enable-background:new 0 0 100 100;" xml:space="preserve">
<style type="text/css">
	.st0{fill:#25282D;}
</style>
<g>
	<path class="st0" d="M72,20.9H26.5c-0.8,0-1.5-0.7-1.5-1.5V6.5C25,5.7,25.7,5,26.5,5H72c0.8,0,1.5,0.7,1.5,1.5v12.9
		C73.5,20.3,72.8,20.9,72,20.9z"/>
</g>
<g>
	<path class="st0" d="M72,46H26.5c-0.8,0-1.5-0.7-1.5-1.5V31.5c0-0.8,0.7-1.5,1.5-1.5H72c0.8,0,1.5,0.7,1.5,1.5v12.9
		C73.5,45.3,72.8,46,72,46z"/>
</g>
<g>
	<path class="st0" d="M72,71H26.5c-0.8,0-1.5-0.7-1.5-1.5V56.5c0-0.8,0.7-1.5,1.5-1.5H72c0.8,0,1.5,0.7,1.5,1.5v12.9
		C73.5,70.3,72.8,71,72,71z"/>
</g>
<g>
	<path class="st0" d="M72,96H26.5c-0.8,0-1.5-0.7-1.5-1.5V81.6c0-0.8,0.7-1.5,1.5-1.5H72c0.8,0,1.5,0.7,1.5,1.5v12.9
		C73.5,95.3,72.8,96,72,96z"/>
</g>
</svg>
