<svg version="1.1" id="Layer_1" xmlns="http://www.w3.org/2000/svg" xmlns:xlink="http://www.w3.org/1999/xlink" x="0px" y="0px"
	 viewBox="0 0 100 100" style="enable-background:new 0 0 100 100;" xml:space="preserve">
<style type="text/css">
	.st0{fill:#25282D;}
</style>
<g>
	<path class="st0" d="M44.5,22.9h-41c-0.8,0-1.5-0.7-1.5-1.5V9.9c0-0.8,0.7-1.5,1.5-1.5h41c0.8,0,1.5,0.7,1.5,1.5v11.5
		C46,22.2,45.3,22.9,44.5,22.9z"/>
</g>
<g>
	<path class="st0" d="M44.5,45.6h-41c-0.8,0-1.5-0.7-1.5-1.5V32.6c0-0.8,0.7-1.5,1.5-1.5h41c0.8,0,1.5,0.7,1.5,1.5v11.5
		C46,44.9,45.3,45.6,44.5,45.6z"/>
</g>
<g>
	<path class="st0" d="M44.5,68.3h-41c-0.8,0-1.5-0.7-1.5-1.5V55.3c0-0.8,0.7-1.5,1.5-1.5h41c0.8,0,1.5,0.7,1.5,1.5v11.5
		C46,67.6,45.3,68.3,44.5,68.3z"/>
</g>
<g>
	<path class="st0" d="M44.5,91h-41C2.7,91,2,90.3,2,89.5V78c0-0.8,0.7-1.5,1.5-1.5h41c0.8,0,1.5,0.7,1.5,1.5v11.5
		C46,90.3,45.3,91,44.5,91z"/>
</g>
<g>
	<path class="st0" d="M97.5,22.9h-41c-0.8,0-1.5-0.7-1.5-1.5V9.9c0-0.8,0.7-1.5,1.5-1.5h41c0.8,0,1.5,0.7,1.5,1.5v11.5
		C99,22.2,98.3,22.9,97.5,22.9z"/>
</g>
<g>
	<path class="st0" d="M97.5,45.6h-41c-0.8,0-1.5-0.7-1.5-1.5V32.6c0-0.8,0.7-1.5,1.5-1.5h41c0.8,0,1.5,0.7,1.5,1.5v11.5
		C99,44.9,98.3,45.6,97.5,45.6z"/>
</g>
<g>
	<path class="st0" d="M97.5,68.3h-41c-0.8,0-1.5-0.7-1.5-1.5V55.3c0-0.8,0.7-1.5,1.5-1.5h41c0.8,0,1.5,0.7,1.5,1.5v11.5
		C99,67.6,98.3,68.3,97.5,68.3z"/>
</g>
<g>
	<path class="st0" d="M97.5,91h-41c-0.8,0-1.5-0.7-1.5-1.5V78c0-0.8,0.7-1.5,1.5-1.5h41c0.8,0,1.5,0.7,1.5,1.5v11.5
		C99,90.3,98.3,91,97.5,91z"/>
</g>
</svg>
